<svg xmlns="http://www.w3.org/2000/svg" version="1.1" xmlns:xlink="http://www.w3.org/1999/xlink" xmlns:svgjs="http://svgjs.dev/svgjs" width="1440" height="560" preserveAspectRatio="none" viewBox="0 0 1440 560"><g mask="url(&quot;#SvgjsMask1129&quot;)" fill="none"><path d="M140 86.15C115.43 94.34 115 116.44 115 140C115 152.11 125.38 154 140 157.5C207.88 173.75 218.38 186.11 280 179.49C299.87 177.36 302.99 160.5 302.99 140C302.99 113.26 304.34 93.04 280 85C222.84 66.12 197.93 66.84 140 86.15" stroke="rgba(240, 217, 196, 1)" stroke-width="2"></path><path d="M700 87.03C685.19 87.03 666.21 113.41 666.21 140C666.21 167.12 685.22 194.44 700 194.44C713.64 194.44 723.06 167.16 723.06 140C723.06 113.46 713.62 87.03 700 87.03" stroke="rgba(227, 240, 219, 1)" stroke-width="2"></path><path d="M773.18 0C808.39 8.04 809.37 31.96 840 31.96C858.59 31.96 851.09 4.68 871.61 0C921.09 -11.3 925.81 0 980 0C1050 0 1050 0 1120 0C1185.17 0 1186.36 -3.46 1250.34 0C1256.36 0.33 1255.4 7.57 1260 7.57C1264.01 7.57 1262.33 0.28 1267.57 0C1332.33 -3.5 1333.78 0 1400 0C1453.26 0 1475.34 -28.58 1506.52 0C1545.34 35.58 1524.61 63.99 1540 128.33C1541.35 133.99 1540 134.17 1540 140C1540 210 1540 210 1540 280C1540 350 1540 350 1540 420C1540 490 1575 525 1540 560C1505 595 1470 560 1400 560C1330 560 1330 560 1260 560C1190 560 1190 560 1120 560C1050 560 1050 560 980 560C910 560 910 560 840 560C770 560 770 560 700 560C630 560 630 560 560 560C490 560 490 560 420 560C350 560 350 560 280 560C210 560 210 560 140 560C70 560 40.41 589.59 0 560C-29.59 538.34 -9.5 505.63 0 457.5C4.32 435.63 27.63 437.36 27.63 420C27.63 406.11 3.38 412.13 0 395C-10.43 342.13 0 337.5 0 280C0 210 0 210 0 140C0 70 -35 35 0 0C35 -35 70 0 140 0C210 0 210 0 280 0C350 0 350 0 420 0C490 0 490 0 560 0C630 0 630 0 700 0C736.59 0 738.39 -7.94 773.18 0" stroke="rgba(240, 217, 196, 1)" stroke-width="2"></path><path d="M1400 220.5C1386.21 220.5 1372.95 248.72 1372.95 280C1372.95 344.58 1386.17 412.22 1400 412.22C1413.86 412.22 1428.33 344.45 1428.33 280C1428.33 248.59 1413.9 220.5 1400 220.5" stroke="rgba(227, 240, 219, 1)" stroke-width="2"></path><path d="M355.22 140C361.17 72.78 285.62 39.35 303.83 0C318.01 -30.65 361.91 0 420 0C490 0 490 0 560 0C626.66 0 683.08 -31.28 693.33 0C706.01 38.72 606.82 69.57 605.86 140C604.91 209.57 647.18 210.32 689.5 280C694.25 287.82 695.02 295 700 295C704.74 295 705.6 288.06 708.94 280C737.72 210.56 725.36 202.31 764.24 140C790.89 97.31 802.91 105.81 840 70C875.41 35.81 868.52 20.37 909.25 0C938.52 -14.63 944.63 0 980 0C1050 0 1050 0 1120 0C1124.83 0 1125.8 -2.82 1129.66 0C1195.8 48.26 1189.05 61.94 1260 102.16C1312.55 131.94 1360 99.49 1376.67 140C1396.59 188.41 1345.49 208.41 1333.18 280C1321.41 348.41 1348.09 355.63 1328.51 420C1311.5 475.94 1307.88 504.55 1260 520.63C1203.63 539.55 1186.52 480.32 1120 490C1051.19 500.01 1055.19 527.07 989.33 560C985.19 562.07 984.66 560 980 560C976.82 560 975.29 562.65 973.64 560C931.73 492.65 940.39 483.63 892.89 420C873.57 394.12 866.76 380.98 840 380.98C811.98 380.98 805.32 394.24 783.33 420C735.32 476.25 749.81 493.66 700 545C681.9 563.66 674.4 557.12 647.5 560C604.4 564.62 603.75 560 560 560C533.08 560 531.89 566.24 506.15 560C461.89 549.27 457.31 526.06 420 526.06C404.05 526.06 417.04 555.78 399.64 560C347.04 572.75 339.82 560 280 560C225.17 560 219.03 572.92 170.33 560C149.03 554.35 153.6 542.57 140 522.86C105.28 472.57 112.31 466.78 73.68 420C42.31 382.02 21.2 393.61 0 353.33C-15.64 323.61 0 316.66 0 280C0 213.05 -30.7 153.77 0 146.09C39.3 136.27 63.45 211.33 140 245C203.45 272.9 227.57 294.81 280 269.23C335.18 242.31 349.25 207.4 355.22 140" stroke="rgba(227, 240, 219, 1)" stroke-width="2"></path><path d="M980 95.36C953.88 95.36 934.71 112.46 934.71 140C934.71 198.94 948.91 268.33 980 268.33C1015.55 268.33 1068 192.92 1068 140C1068 106.44 1020.53 95.36 980 95.36" stroke="rgba(227, 240, 219, 1)" stroke-width="2"></path><path d="M1400 116.67C1382.79 116.67 1362.16 44.58 1362.16 0C1362.16 -13.75 1381.08 0 1400 0C1415.22 0 1430.43 -11.76 1430.43 0C1430.43 46.58 1416.92 116.67 1400 116.67" stroke="rgba(240, 217, 196, 1)" stroke-width="2"></path><path d="M1470 280C1470 233.65 1520.41 190.91 1540 190.91C1555.41 190.91 1540 235.45 1540 280C1540 335.47 1556.04 390.94 1540 390.94C1521.04 390.94 1470 333.66 1470 280" stroke="rgba(227, 240, 219, 1)" stroke-width="2"></path><path d="M280 303.33C256.97 303.33 238.82 367.4 238.82 420C238.82 442.67 258.43 453.87 280 453.87C305.27 453.87 332.5 444.7 332.5 420C332.5 369.43 303.81 303.33 280 303.33" stroke="rgba(227, 240, 219, 1)" stroke-width="2"></path><path d="M0 520C26.45 520 77.24 549.41 77.24 560C77.24 569.41 25.44 573.18 0 560C-13.18 553.18 -12.17 520 0 520" stroke="rgba(227, 240, 219, 1)" stroke-width="2"></path><path d="M1334.12 560C1334.12 550.71 1364.23 530.21 1400 525C1467.17 515.21 1482.35 515.59 1540 530C1552.35 533.09 1552.35 557.35 1540 560C1482.35 572.35 1470 560 1400 560C1367.06 560 1334.12 568.21 1334.12 560" stroke="rgba(240, 217, 196, 1)" stroke-width="2"></path><path d="M407.46 140C394.38 69.73 373.45 54.2 378.3 0C379.72 -15.8 399.15 0 420 0C490 0 490 0 560 0C585 0 610 -15.45 610 0C610 34.55 594.86 59.33 560 100C534.86 129.33 490 118.79 490 140C490 162.13 534.73 155.09 560 186.67C590.73 225.09 575.78 236.3 602 280C645.78 352.97 711.07 366.69 700 420C690.07 467.8 630 482.22 560 482.22C490 482.22 447.03 472.07 420 420C394.53 370.96 455 347.23 455 280C455 249.23 430.4 254.62 420 224C406.63 184.62 415.23 181.73 407.46 140" stroke="rgba(240, 217, 196, 1)" stroke-width="2"></path><path d="M805.41 140C812.47 118.55 821.83 108.04 840 108.04C860.75 108.04 874.52 116.32 883.24 140C906.18 202.3 917.34 220.53 903.33 280C895.72 312.33 871.08 323.61 840 323.61C811.12 323.61 789.2 310.77 783.4 280C771.9 218.97 784.17 204.53 805.41 140" stroke="rgba(240, 217, 196, 1)" stroke-width="2"></path><path d="M980 44.64C959.44 44.64 946.88 13.99 946.88 0C946.88 -8.33 963.44 0 980 0C1014.22 0 1048.44 -10.17 1048.44 0C1048.44 12.15 1010.22 44.64 980 44.64" stroke="rgba(240, 217, 196, 1)" stroke-width="2"></path><path d="M0 222.17C24.54 222.17 78.24 256.04 78.24 280C78.24 300.79 28.45 311.67 0 311.67C-10.67 311.67 0 295.84 0 280C0 251.09 -14.58 222.17 0 222.17" stroke="rgba(240, 217, 196, 1)" stroke-width="2"></path><path d="M1103.85 280C1103.85 265.88 1106.15 259.24 1120 252C1184.23 218.41 1205.42 189.52 1260 198.33C1292.12 203.52 1293.41 238.06 1293.41 280C1293.41 342.81 1297.82 401.29 1260 407.83C1211.11 416.29 1185.09 363.29 1120 310C1107.02 299.37 1103.85 294.88 1103.85 280" stroke="rgba(240, 217, 196, 1)" stroke-width="2"></path><path d="M1511.67 280C1511.67 261.24 1532.07 243.94 1540 243.94C1546.24 243.94 1540 261.97 1540 280C1540 302.46 1546.49 324.91 1540 324.91C1532.33 324.91 1511.67 301.72 1511.67 280" stroke="rgba(227, 240, 219, 1)" stroke-width="2"></path><path d="M119.74 420C119.74 391.62 127.76 360.77 140 360.77C152.99 360.77 170.2 392.62 170.2 420C170.2 437.95 153.58 451.43 140 451.43C128.35 451.43 119.74 436.95 119.74 420" stroke="rgba(227, 240, 219, 1)" stroke-width="2"></path><path d="M970.67 420C970.67 411.96 973.04 403.85 980 403.85C992.71 403.85 1010 412.04 1010 420C1010 427.9 992.8 435.56 980 435.56C973.13 435.56 970.67 427.82 970.67 420" stroke="rgba(227, 240, 219, 1)" stroke-width="2"></path><path d="M228.67 560C228.67 545.55 253.8 510.32 280 510.32C307.46 510.32 336 545.79 336 560C336 570.63 308 560 280 560C254.34 560 228.67 570.39 228.67 560" stroke="rgba(227, 240, 219, 1)" stroke-width="2"></path></g><defs><mask id="SvgjsMask1129"><rect width="1440" height="560" fill="#ffffff"></rect></mask></defs></svg>